<svg xmlns="http://www.w3.org/2000/svg" viewBox="0 0 1080 1920">
  <defs>
    <linearGradient id="night" x1="0" y1="0" x2="0" y2="1"><stop offset="0" stop-color="#171033"/><stop offset=".52" stop-color="#2d1b55"/><stop offset="1" stop-color="#130e27"/></linearGradient>
    <radialGradient id="starGlow" cx="50%" cy="28%" r="65%"><stop offset="0" stop-color="#e7c8ff" stop-opacity=".25"/><stop offset="1" stop-color="#9b78ff" stop-opacity="0"/></radialGradient>
  </defs>
  <rect width="1080" height="1920" fill="url(#night)"/><rect width="1080" height="1920" fill="url(#starGlow)"/>
  <g fill="none" stroke="#ffcf77" stroke-width="9" opacity=".18"><path d="M-80 620Q270 230 560 620t600 0"/><path d="M-140 700Q240 320 540 700t640 0"/></g>
  <g fill="#ffe99c" opacity=".6"><path d="m160 300 8 22 23 1-18 14 6 23-19-13-19 13 6-23-18-14 23-1z"/><path d="m850 430 7 19 21 1-16 12 5 20-17-11-17 11 5-20-16-12 21-1z"/><circle cx="430" cy="260" r="4"/><circle cx="650" cy="500" r="3"/></g>
  <path d="M0 1630q150-170 300 0t300 0 300 0 300 0v290H0z" fill="#0b0820" opacity=".52"/>
</svg>
